<?xml version="1.0" encoding="utf-8"?>
<!DOCTYPE svg PUBLIC "-//W3C//DTD SVG 1.1//EN" "http://www.w3.org/Graphics/SVG/1.1/DTD/svg11.dtd">
<svg xmlns="http://www.w3.org/2000/svg" xmlns:xlink="http://www.w3.org/1999/xlink" width="100px" height="100px" viewBox="0 0 100 100" enable-background="new 0 0 100 100" xml:space="preserve">
	
	<!-- X and Y axis -->
	<rect width="6" height="100"></rect>
	<rect width="100" height="6" y="94"></rect>

	<!-- botom-left -->
	<!-- a -->
	<rect width="29" height="8" transform="rotate(-20) translate(-30 83.7)"></rect>
	<!-- b -->
	<rect width="28" height="8" transform="translate(22.7 84.4) rotate(-68) translate(1)"></rect>

	<!-- top-right -->
	<!-- c -->
	<rect width="20" height="8" transform="translate(63.9 -61.1) rotate(-20) translate(-30 83.7)"></rect>
	<!-- d -->
	<rect width="33" height="8" transform="translate(79.7 23.3) rotate(-50)"></rect>

	<!-- Dollar sign -->
	<path transform="translate(3 -3)" d="M52.479,16.976v3.996c2.639,0.273,4.903,0.815,6.79,1.628c1.887,0.815,3.534,2.048,4.94,3.7   c1.11,1.258,1.967,2.553,2.571,3.885c0.604,1.333,0.907,2.553,0.907,3.663c0,1.233-0.45,2.301-1.351,3.2   c-0.901,0.901-1.992,1.351-3.275,1.351c-2.418,0-3.984-1.308-4.699-3.922c-0.814-3.083-2.775-5.13-5.883-6.142v15.392   c3.058,0.84,5.495,1.604,7.308,2.295c1.814,0.69,3.435,1.69,4.866,2.997c1.529,1.357,2.707,2.979,3.534,4.866   c0.826,1.887,1.239,3.953,1.239,6.198c0,2.813-0.66,5.446-1.98,7.9c-1.32,2.455-3.263,4.459-5.828,6.013   c-2.566,1.554-5.612,2.479-9.139,2.775v4.048c0,1.455-0.142,2.516-0.426,3.182C51.77,84.667,51.147,85,50.186,85   c-0.889,0-1.512-0.271-1.869-0.814c-0.358-0.543-0.537-1.382-0.537-2.517v-4.825c-2.886-0.321-5.408-0.999-7.566-2.035   c-2.159-1.036-3.959-2.325-5.403-3.867c-1.443-1.541-2.51-3.144-3.2-4.81c-0.69-1.665-1.036-3.299-1.036-4.903   c0-1.184,0.463-2.25,1.388-3.2c0.925-0.95,2.078-1.425,3.46-1.425c1.11,0,2.047,0.259,2.812,0.778   c0.765,0.518,1.296,1.246,1.591,2.182c0.666,2.023,1.245,3.571,1.739,4.644c0.493,1.072,1.239,2.053,2.238,2.941   c0.999,0.889,2.325,1.567,3.977,2.035V51.979c-3.306-0.912-6.068-1.93-8.288-3.052c-2.221-1.122-4.021-2.719-5.403-4.792   c-1.382-2.072-2.072-4.737-2.072-7.993c0-4.242,1.351-7.721,4.052-10.434c2.701-2.713,6.604-4.292,11.711-4.737V17.05   c0-2.072,0.778-3.108,2.332-3.108C51.69,13.942,52.479,14.954,52.479,16.976z M47.78,42.359V28.187   c-2.072,0.617-3.687,1.431-4.847,2.442c-1.16,1.012-1.739,2.541-1.739,4.588c0,1.949,0.543,3.423,1.628,4.422   C43.907,40.639,45.56,41.545,47.78,42.359z M52.479,53.349v16.207c2.491-0.494,4.416-1.493,5.773-2.998   c1.356-1.504,2.035-3.255,2.035-5.254c0-2.146-0.66-3.805-1.98-4.977C56.987,55.156,55.044,54.163,52.479,53.349z"/>

</svg>